<svg xmlns="http://www.w3.org/2000/svg" viewBox="0 0 44 44"><defs><style>.cls-1{fill:#45c2b1;}.cls-2{fill:#fff;}</style></defs><title>資產 2</title><g id="圖層_2" data-name="圖層 2"><g id="圖層_1-2" data-name="圖層 1"><circle class="cls-1" cx="22" cy="22" r="22" transform="translate(-7.01 10.74) rotate(-23.79)"/><path class="cls-2" d="M32.55,22l-9.76,9.35a1,1,0,1,0,1.32,1.38l10.48-10a.94.94,0,0,0,0-1.38l-10.48-10a1,1,0,0,0-.66-.27.93.93,0,0,0-.69.3.94.94,0,0,0,0,1.35Z"/><path class="cls-2" d="M22.16,22,12.4,31.35a1,1,0,0,0,0,1.35.94.94,0,0,0,1.35,0l10.48-10a.94.94,0,0,0,0-1.38l-10.48-10a.93.93,0,0,0-.66-.27,1,1,0,0,0-.69.3,1,1,0,0,0,0,1.35Z"/></g></g></svg>