<svg xmlns="http://www.w3.org/2000/svg" viewBox="0 0 81.49 59.93"><defs><style>.cls-1{isolation:isolate;font-size:16.88px;fill:#5b5b5b;font-family:MicrosoftJhengHeiBold, Microsoft JhengHei;letter-spacing:0.1em;}.cls-2{fill:#83c6f1;}</style></defs><title>資產 4</title><g id="圖層_2" data-name="圖層 2"><g id="圖層_32" data-name="圖層 32"><g id="FEMALE"><text class="cls-1" transform="translate(44.53 55.52)">男孩</text></g><path class="cls-2" d="M34.46,27.17l10-10a18.43,18.43,0,0,0,4,9.24l.19.2a3.7,3.7,0,0,0,5.42-5c-.24-.27-5.61-6.7.67-14.66l.56-.56a3.7,3.7,0,0,0-5.23-5.23l-.56.56c-7.71,6.08-14,1.23-14.66.67A3.7,3.7,0,1,0,30,7.91a18.43,18.43,0,0,0,9.24,4l-10,10.05a18.81,18.81,0,1,0,5.23,5.23ZM10.74,45.66a11.41,11.41,0,1,1,16.14,0A11.43,11.43,0,0,1,10.74,45.66Z"/></g></g></svg>