<svg xmlns="http://www.w3.org/2000/svg" viewBox="0 0 136.23 143.6"><defs><style>.cls-1{fill:#45c2b1;stroke:#45c2b1;stroke-miterlimit:10;stroke-width:2px;}</style></defs><title>資產 33</title><g id="圖層_2" data-name="圖層 2"><g id="圖層_1-2" data-name="圖層 1"><path class="cls-1" d="M24,101.11c0-7.1,0-14.21,0-21.31a2.67,2.67,0,0,0-2.14-3,30.12,30.12,0,0,1-14.61-47C13.38,21.7,21.82,17.76,32.1,18a26.36,26.36,0,0,1,7,.92c1.4.41,2.14,0,2.78-1.31A28.67,28.67,0,0,1,59.16,2.42,29,29,0,0,1,93.39,15.81c.29.51.56,1,.83,1.56,1,1.95,1,1.95,3.16,1.42a29.92,29.92,0,0,1,13.7-.22c11.27,2.58,19,9.41,22.56,20.37,3.62,11.33,1,21.56-7.18,30.28a27.42,27.42,0,0,1-12.2,7.64,2.6,2.6,0,0,0-2.11,3c0,13.91,0,27.83,0,41.74,0,.49,0,1,0,1.47-.09,2.58-1.73,3.84-4.24,3.15-4.2-1.16-8.41-2.29-12.69-3.14a148.2,148.2,0,0,0-19.37-2.45,139.19,139.19,0,0,0-37.37,3c-3.31.69-6.59,1.5-9.83,2.48-2.91.89-4.69-.44-4.7-3.51Q24,111.85,24,101.11Zm6.18-4.72q0,10.22,0,20.43c0,2.3.15,2.4,2.37,1.84a146.17,146.17,0,0,1,30.77-4.44,141.17,141.17,0,0,1,39.89,4.33c2.77.71,2.83.67,2.83-2.16q0-20.07,0-40.13c0-3.14.6-3.86,3.62-4.51a24.06,24.06,0,0,0-6.25-47.59A24.47,24.47,0,0,0,95.26,26c-2.78,1.14-4.31.42-5.29-2.45-.1-.28-.19-.56-.28-.84A22.53,22.53,0,0,0,67.3,7.22,22.78,22.78,0,0,0,46.46,22.55c-1.58,4.43-2.22,4.72-6.64,3.07A24.09,24.09,0,0,0,8.09,41.86C4.4,55.26,12.67,68.65,26.53,71.73c3,.67,3.61,1.4,3.62,4.53Q30.17,86.32,30.15,96.39Z"/><path class="cls-1" d="M67.18,129.75a139.52,139.52,0,0,1,42.46,6.79c2,.6,2.89,2.18,2.37,3.89a3,3,0,0,1-4,2c-4.2-1.14-8.37-2.41-12.62-3.37A121.21,121.21,0,0,0,63.77,136a134.1,134.1,0,0,0-33.35,5.77,23.73,23.73,0,0,1-3,.74,2.89,2.89,0,0,1-3.29-2.07,3,3,0,0,1,1.63-3.67,43.46,43.46,0,0,1,4.62-1.46,149.64,149.64,0,0,1,27.83-5.17A68,68,0,0,1,67.18,129.75Z"/><path class="cls-1" d="M103.29,31.54A17.43,17.43,0,0,1,121,49.64c0,2.15-1.26,3.59-3,3.63-1.94,0-3.11-1.31-3.14-3.6-.11-7.36-5.31-12.32-12.51-11.94a16.62,16.62,0,0,0-2.87.59,3.08,3.08,0,0,1-3.8-1.9,3.13,3.13,0,0,1,1.75-3.9A13.6,13.6,0,0,1,103.29,31.54Z"/><path class="cls-1" d="M50.71,94.78c0,2.84,0,5.67,0,8.51a10.07,10.07,0,0,1-.23,2.33,3,3,0,0,1-5.83-.13,9.29,9.29,0,0,1-.2-2c0-5.72,0-11.44,0-17.17a13.89,13.89,0,0,1,.14-2,2.81,2.81,0,0,1,2.81-2.66,3,3,0,0,1,3.13,2.34A11.72,11.72,0,0,1,50.7,87v7.79Z"/><path class="cls-1" d="M85.44,94.62c0-2.79,0-5.57,0-8.36a10.62,10.62,0,0,1,.16-2.19,3,3,0,0,1,3.16-2.5,2.71,2.71,0,0,1,2.79,2.67c.15,2.73.11,5.47.12,8.2,0,3.42,0,6.85,0,10.27a16.44,16.44,0,0,1-.15,2.63,3,3,0,0,1-2.82,2.55,3,3,0,0,1-3-2.28,9.33,9.33,0,0,1-.22-2.18C85.43,100.5,85.44,97.56,85.44,94.62Z"/><path class="cls-1" d="M64.93,93.74c0-2.93-.08-5.87,0-8.8.08-2.18,1.29-3.36,3.1-3.37a2.92,2.92,0,0,1,3,2.32,9.3,9.3,0,0,1,.21,2q0,7.84,0,15.71A7.09,7.09,0,0,1,71,104.1a3,3,0,0,1-5.76,0,7.06,7.06,0,0,1-.32-2.46q0-4,0-7.93Z"/></g></g></svg>