<svg xmlns="http://www.w3.org/2000/svg" viewBox="0 0 29.18 21.88"><defs><style>.cls-1{fill:#45c2b1;}</style></defs><title>資產 7</title><g id="圖層_2" data-name="圖層 2"><g id="圖層_1-2" data-name="圖層 1"><path class="cls-1" d="M26.44,0H2.74A2.74,2.74,0,0,0,0,2.74V19.15a2.74,2.74,0,0,0,2.74,2.73h23.7a2.74,2.74,0,0,0,2.74-2.73V2.74A2.74,2.74,0,0,0,26.44,0ZM2.74,1.82h23.7a1,1,0,0,1,.35.07L14.59,12.47,2.39,1.89A1,1,0,0,1,2.74,1.82ZM27.35,19.15a.91.91,0,0,1-.91.91H2.74a.92.92,0,0,1-.92-.91V3.82L14,14.37a1,1,0,0,0,.6.22,1,1,0,0,0,.6-.22L27.35,3.82Z"/></g></g></svg>