<svg xmlns="http://www.w3.org/2000/svg" viewBox="0 0 180.55 45"><defs><style>.cls-1{fill:#4cc2b1;}.cls-2{font-size:30px;fill:#6abcae;font-family:Helvetica-Light, Helvetica Light;font-weight:300;}.cls-3{letter-spacing:-0.05em;}.cls-4{letter-spacing:-0.01em;}.cls-5{letter-spacing:0em;}</style></defs><title>資產 13</title><g id="圖層_2" data-name="圖層 2"><g id="圖層_32" data-name="圖層 32"><path class="cls-1" d="M22.42,45A22.26,22.26,0,0,1,0,22.43,22.09,22.09,0,0,1,22.58,0a22.5,22.5,0,1,1-.16,45ZM29.16,8.87c-1.57,0-3,0-4.45,0-3.58.06-5.74,2.21-5.82,5.77,0,.86,0,1.73,0,2.63l-2.77.15v5.69h2.79v14H24.6V23.07h4.17l.54-5.74H24.82V15.91c0-1.87.21-2.1,2.07-2.11.73,0,1.46,0,2.27,0Z"/><text class="cls-2" transform="translate(60.16 33.14)"><tspan class="cls-3">F</tspan><tspan x="13.26" y="0">a</tspan><tspan class="cls-4" x="27.72" y="0">c</tspan><tspan class="cls-5" x="40.98" y="0">ebook</tspan></text></g></g></svg>