<svg xmlns="http://www.w3.org/2000/svg" viewBox="0 0 88 88"><defs><style>.cls-1{fill:#fff;}.cls-2{fill:none;}</style></defs><title>資產 23</title><g id="圖層_2" data-name="圖層 2"><g id="圖層_1-2" data-name="圖層 1"><polygon class="cls-1" points="37.48 51.7 37.52 51.74 37.49 51.69 37.48 51.7"/><polygon class="cls-1" points="40.69 55.21 36.79 51.76 37.13 51.34 37.55 50.93 40.69 55.21"/></g><g id="圖層_2-2" data-name="圖層 2"><path class="cls-1" d="M44,12.09c1.15,1.3,1.33,1.33,2.62.37.66-.49,1.34-1,2-1.49a1.42,1.42,0,0,1,2,0c.76.59,1.53,1.18,2.28,1.79a1.07,1.07,0,0,0,1.58,0c.73-.64,1.58-1.13,2.31-1.76a1.52,1.52,0,0,1,2.28.1c.58.53,1.21,1,1.77,1.54a1.08,1.08,0,0,0,1.66.05c.71-.6,1.48-1.13,2.19-1.72a1.41,1.41,0,0,1,2.09,0,13.78,13.78,0,0,0,2,1.57A3.94,3.94,0,0,1,70.59,16c.52,6,1.17,11.92,1.41,17.91q.28,7.32.1,14.64c-.14,4.94-.51,9.87-1,14.8a84.81,84.81,0,0,0-.5,11.82c0,.76,0,1.55-.81,1.91s-1.41-.07-2-.55c-2.25-1.74-2.26-1.73-4.56.06-1.48,1.15-1.94,1.14-3.41,0-2.13-1.74-2.13-1.74-4.33-.09-1.77,1.33-2,1.33-3.79,0-2.23-1.66-2.23-1.66-4.47,0-1.8,1.34-2,1.34-3.76,0-2.18-1.68-2.18-1.68-4.46,0-1.89,1.39-2.21,1.38-4.06-.13-2.23-1.81-1.67-1.65-3.8-.16-2.53,1.78-2.65,1.79-5-.34-.84-.77-1.55-1.21-2.51-.19a11.4,11.4,0,0,1-1.53,1.13,1.74,1.74,0,0,1-1.88.32,1.58,1.58,0,0,1-.84-1.68c0-1.6,0-3.21,0-4.81,0-4.58-.46-9.14-.86-13.69-.13-1.41-.15-2.83-.24-4.24-.31-5.32-.41-10.65-.21-16,.19-5,.4-10.1,1-15.13.28-2.29.49-4.58.68-6.88a1.6,1.6,0,0,1,.7-1.31c1.16-.81,2.29-1.65,3.45-2.47a1.46,1.46,0,0,1,1.85.07c.67.46,1.12,1.24,2,1.39.65,1.13.83,1.18,1.82.48.82-.58,1.65-1.14,2.44-1.77a1.49,1.49,0,0,1,2.17.09c.73.64,1.52,1.2,2.25,1.83a.77.77,0,0,0,1.16,0c.9-.71,1.87-1.34,2.79-2a1.41,1.41,0,0,1,1.92,0A4.3,4.3,0,0,0,44,12.09Zm-16.75,7c.13.82-.13,1.18-1.05,1.12-1.34-.09-2.68,0-4,0-.28,0-.57-.09-.73.32-.47,1.26-.15,1.78,1.15,1.78H66.7c.55,0,1.11,0,1.67,0,.25,0,.51,0,.59-.36a1.32,1.32,0,0,0-1.37-1.74c-9.5,0-19,0-28.5,0-.89,0-1.35-.15-1.17-1.12-.13-1,.41-1.15,1.26-1.15q13.76,0,27.5,0h1a.63.63,0,0,0,.67-.59,4,4,0,0,0-2.54-4,.84.84,0,0,0-.81.25c-.76.6-1.53,1.18-2.27,1.81a1.48,1.48,0,0,1-2.19,0c-.61-.54-1.26-1-1.87-1.59a1.22,1.22,0,0,0-1.85,0c-.67.59-1.45,1.06-2.11,1.66a1.51,1.51,0,0,1-2.27-.08c-.68-.57-1.42-1.08-2.11-1.65a1.16,1.16,0,0,0-1.69,0c-.68.57-1.42,1.08-2.11,1.65a1.64,1.64,0,0,1-2.47-.08c-.65-.61-1.41-1.1-2.09-1.67a1,1,0,0,0-1.4,0c-.88.67-1.83,1.28-2.72,1.95A1.32,1.32,0,0,1,36,15.45c-.72-.58-1.49-1.12-2.17-1.75a1.1,1.1,0,0,0-1.66-.08c-.83.68-1.77,1.24-2.63,1.89a1.32,1.32,0,0,1-1.82-.06l-2.34-1.89a1,1,0,0,0-.92-.29,4,4,0,0,0-2.69,3.58c0,.76.2,1.11,1,1.08,1.08-.05,2.17,0,3.24,0C27,17.85,27.3,18.19,27.2,19.06Zm41.17,55c0-1,0-1.67,0-2.36s-.31-1.06-1.07-1c-1,0-2,0-3,0-.83,0-1.12-.29-1.11-1.11s.18-1.2,1.06-1.15,2,0,3,0,1.3-.3,1.33-1.28c.09-2.26.23-4.53.48-6.79.5-4.48.67-9,.81-13.47.22-7.15-.13-14.29-.62-21.43-.06-.92-.47-1.11-1.27-1.11-4.36,0-8.73,0-13.09,0q-16.21,0-32.43,0c-.8,0-1.52,0-1.55,1.08-.05,1.53-.09,3.06-.25,4.57-.24,2.12-.07,4.25-.25,6.36a132.5,132.5,0,0,0,.12,16.19c.18,4.72.7,9.42,1,14.13.12,1.73.07,1.73,1.86,1.73H58c.71,0,1.39-.13,1.43,1S58.9,70.72,58,70.72q-17.51,0-35,0c-.83,0-1.54,0-1.38,1.15.1.68-.36,1.65.25,2s1.09-.59,1.64-1c1.23-.8,1.62-.79,2.77.15.63.51,1.31,1,1.92,1.53a.87.87,0,0,0,1.28,0c.77-.58,1.55-1.15,2.35-1.7,1.14-.8,1.66-.76,2.68.13.53.46,1.09.89,1.62,1.36a1.15,1.15,0,0,0,1.75.08c.65-.56,1.37-1,2.07-1.53,1.15-.82,1.7-.8,2.8.07.67.53,1.37,1,2,1.59a.79.79,0,0,0,1.18,0c.79-.62,1.61-1.2,2.4-1.82a1.64,1.64,0,0,1,2.24,0c.68.53,1.41,1,2,1.58a1.23,1.23,0,0,0,1.93,0c.67-.58,1.4-1.1,2.12-1.64a1.66,1.66,0,0,1,2.32.16c.61.55,1.27,1,1.85,1.62a.88.88,0,0,0,1.36.05c.72-.59,1.47-1.14,2.19-1.73a1.67,1.67,0,0,1,2.41,0C67.22,73.22,67.69,73.56,68.37,74.09Z"/><path class="cls-1" d="M53.59,78a4.15,4.15,0,0,1-2.21-1.11c-1.93-1.44-1.93-1.43-3.87,0s-2.39,1.47-4.37,0-1.88-1.46-3.85,0-2.64,1.51-4.68-.14l-.53-.43C33,75.37,33,75.37,32.2,76l-.78.56c-2.75,1.93-3.12,1.9-5.62-.39-.88-.8-1.23-.84-1.82-.2a6,6,0,0,1-1.07.82c-.17.11-.35.23-.52.36a2.21,2.21,0,0,1-2.38.38,2.07,2.07,0,0,1-1.14-2.14V74.24c0-1.23,0-2.45,0-3.68,0-4.11-.38-8.28-.74-12.31L18,56.91c-.08-.89-.12-1.79-.16-2.68,0-.53,0-1-.08-1.57-.33-5.66-.4-10.91-.21-16s.42-10.22,1-15.18c.29-2.31.5-4.66.68-6.86a2.07,2.07,0,0,1,.91-1.67l2-1.47,1.4-1a2,2,0,0,1,2.42.07,5.77,5.77,0,0,1,.69.59,2.37,2.37,0,0,0,1.11.72l.23,0,.12.2a2.41,2.41,0,0,0,.48.69,3.08,3.08,0,0,0,.61-.37l.63-.45c.6-.41,1.21-.84,1.78-1.3a2,2,0,0,1,2.82.11c.37.32.75.62,1.13.92s.76.59,1.12.91.28.2.52,0q.77-.59,1.56-1.14c.42-.29.84-.58,1.24-.89a1.89,1.89,0,0,1,2.52,0L43,11a2.42,2.42,0,0,0,1,.65l.16,0,.11.13c.93,1.05.93,1.05,1.94.29l.55-.39c.46-.34,1-.69,1.39-1.07a1.9,1.9,0,0,1,2.64,0l.56.44,1.74,1.36c.39.32.59.32.93,0s.81-.63,1.21-.92.76-.54,1.11-.84a2,2,0,0,1,2.93.11l.72.62c.36.3.73.6,1.07.93s.58.37,1,0,.76-.6,1.15-.89.71-.54,1.06-.83a1.89,1.89,0,0,1,2.73,0l.12.1A12.31,12.31,0,0,0,69,12.15,4.45,4.45,0,0,1,71.08,16l.39,4.23c.42,4.48.85,9.11,1,13.7.2,5,.23,9.94.1,14.67-.12,4.43-.44,9.15-1,14.84a84.65,84.65,0,0,0-.5,11.75A2.13,2.13,0,0,1,70,77.55a2.45,2.45,0,0,1-2.54-.62c-1.94-1.5-1.94-1.5-3.94.06-1.67,1.3-2.38,1.29-4,0-1.83-1.49-1.83-1.49-3.72-.08A4,4,0,0,1,53.59,78Zm4-3.23c.66,0,1.3.47,2.48,1.43s1.49,1,2.78,0c2.5-1.94,2.74-1.94,5.17-.06.65.5,1,.7,1.54.49s.53-.62.5-1.43a88.19,88.19,0,0,1,.5-11.89c.55-5.67.87-10.36,1-14.77.13-4.71.1-9.62-.1-14.6-.18-4.56-.61-9.18-1-13.65-.13-1.41-.26-2.82-.38-4.23a3.44,3.44,0,0,0-1.6-3,12.57,12.57,0,0,1-2-1.54l-.12-.1a.94.94,0,0,0-1.44,0c-.35.29-.72.57-1.09.85s-.74.57-1.1.87A1.56,1.56,0,0,1,60.42,13c-.32-.31-.66-.6-1-.89l-.75-.63c-.62-.56-1-.59-1.61-.1-.38.33-.79.62-1.18.9a12.42,12.42,0,0,0-1.13.86,1.56,1.56,0,0,1-2.22,0c-.57-.46-1.14-.91-1.72-1.35l-.56-.44c-.55-.42-.92-.43-1.38,0s-1,.76-1.46,1.12l-.53.39c-1.47,1.09-1.95,1.06-3.19-.33a3.44,3.44,0,0,1-1.31-.84c-.12-.1-.24-.21-.36-.3a.9.9,0,0,0-1.3,0l-1.27.91c-.52.36-1,.72-1.53,1.11a1.25,1.25,0,0,1-1.79-.05c-.35-.3-.71-.59-1.08-.88s-.79-.62-1.17-.95a1,1,0,0,0-1.53-.08c-.6.48-1.23.92-1.84,1.34l-.62.44c-.52.37-.95.64-1.41.53s-.71-.46-1-1a3.47,3.47,0,0,1-1.39-.93,5.17,5.17,0,0,0-.56-.49c-.59-.4-.94-.32-1.28-.07l-1.39,1-2.07,1.47a1.1,1.1,0,0,0-.48.94c-.18,2.21-.39,4.58-.68,6.9-.62,4.92-.84,10-1,15.09s-.12,10.3.21,15.93c0,.53.06,1.06.08,1.58,0,.88.08,1.76.16,2.64l.12,1.34c.35,4.06.73,8.25.74,12.4,0,1.23,0,2.45,0,3.68v1.13c0,.72.14,1,.55,1.23a1.25,1.25,0,0,0,1.37-.27c.18-.14.38-.27.58-.4a4.84,4.84,0,0,0,.88-.67c1.41-1.49,2.59-.42,3.22.16,2.09,1.9,2.09,1.9,4.38.3l.75-.54c1.36-1,1.63-.93,3.12.3l.52.43c1.69,1.36,1.75,1.37,3.45.1,2.46-1.82,2.7-1.82,5.06,0,1.59,1.22,1.59,1.22,3.16,0,2.43-1.8,2.66-1.8,5.07,0,1.61,1.2,1.61,1.2,3.19,0C56.35,75.18,57,74.73,57.64,74.73Zm-28.83.62a1.45,1.45,0,0,1-1-.42c-.36-.32-.74-.62-1.13-.91s-.52-.4-.77-.61c-1-.79-1.12-.8-2.18-.11a3.72,3.72,0,0,0-.44.38c-.43.4-1,1-1.71.59s-.61-1.15-.54-1.71a3,3,0,0,0,0-.64,1.5,1.5,0,0,1,.27-1.26A1.92,1.92,0,0,1,23,70.2q17.5,0,35,0c.23,0,.7,0,.82-.13a.92.92,0,0,0,.11-.59c0-.54-.07-.55-.72-.53H23.44c-2,0-2.22-.19-2.35-2.07v-.13c-.12-1.67-.26-3.34-.4-5-.25-3-.51-6.08-.63-9.13,0-.92-.07-1.84-.11-2.76a104.68,104.68,0,0,1,0-13.49c.08-1,.09-1.94.1-2.89A34,34,0,0,1,20.18,30c.15-1.4.2-2.84.24-4.24v-.29c.05-1.57,1.3-1.57,2-1.57q12.78,0,25.51,0H58.18q4.91,0,9.82,0h0a1.52,1.52,0,0,1,1.76,1.58c.44,6.35.85,13.88.62,21.48-.13,4.34-.3,9-.81,13.51-.22,2-.38,4.15-.47,6.75a2,2,0,0,1-.51,1.4,1.84,1.84,0,0,1-1.36.36c-.49,0-1,0-1.49,0s-1,0-1.52,0c-.32,0-.41,0-.43.06a1.1,1.1,0,0,0-.11.6c0,.38.07.49.1.52s.14.1.48.08c.54,0,1.08,0,1.62,0s.94,0,1.41,0a1.55,1.55,0,0,1,1.23.38,1.44,1.44,0,0,1,.35,1.17c0,.46,0,.92,0,1.46,0,.27,0,.56,0,.88v1L67.44,74c-.38-.29-.69-.52-1-.78a1.2,1.2,0,0,0-1.78,0c-.37.31-.75.61-1.13.9l-1.06.83a1.34,1.34,0,0,1-2-.08c-.35-.34-.73-.66-1.11-1l-.72-.63A1.17,1.17,0,0,0,57,73.11l-.5.38c-.54.4-1.09.81-1.6,1.24a1.72,1.72,0,0,1-2.6,0,14.64,14.64,0,0,0-1.26-1c-.25-.18-.49-.35-.73-.54a1.14,1.14,0,0,0-1.62,0l-1.21.91c-.4.3-.8.6-1.19.91a1.27,1.27,0,0,1-1.82,0c-.41-.36-.85-.69-1.29-1l-.7-.54c-.93-.73-1.24-.74-2.2-.05l-.45.31a18.64,18.64,0,0,0-1.58,1.19,1.64,1.64,0,0,1-2.41-.09L34.94,74c-.26-.21-.52-.42-.77-.64-.85-.73-1.12-.75-2.06-.09S30.54,74.39,29.77,75A1.61,1.61,0,0,1,28.81,75.35ZM24.87,71.8a2.79,2.79,0,0,1,1.71.84l.75.58c.41.32.81.63,1.19,1s.34.22.65,0c.78-.58,1.57-1.16,2.37-1.72,1.32-.91,2.09-.87,3.28.17l.75.62c.3.24.6.49.88.74.51.45.74.39,1.09.09a19.11,19.11,0,0,1,1.66-1.26l.45-.31a2.34,2.34,0,0,1,3.4.08l.69.54c.46.35.91.69,1.34,1.07.21.18.27.2.54,0s.8-.62,1.21-.92.8-.59,1.2-.9a2.13,2.13,0,0,1,2.85,0c.23.18.46.36.7.53A12.49,12.49,0,0,1,52.94,74c.47.44.74.44,1.26,0s1.1-.88,1.65-1.28l.5-.38a2.13,2.13,0,0,1,3,.19c.22.2.46.4.7.6.39.32.79.66,1.16,1s.38.27.69,0,.71-.57,1.08-.85.75-.58,1.11-.88a2.18,2.18,0,0,1,3.06,0c.23.2.47.39.75.61,0-.51,0-.94,0-1.37s0-.4-.06-.42-.12-.1-.49-.08-1,0-1.45,0-1,0-1.56,0a1.62,1.62,0,0,1-1.23-.36,1.7,1.7,0,0,1-.4-1.26,1.8,1.8,0,0,1,.43-1.31A1.54,1.54,0,0,1,64.28,68c.48,0,1,0,1.46,0s1,0,1.56,0a1,1,0,0,0,.63-.1,1.16,1.16,0,0,0,.18-.7c.1-2.62.25-4.79.47-6.82.51-4.52.68-9.11.81-13.43.23-7.56-.18-15-.62-21.38,0-.57-.16-.67-.77-.65q-4.9,0-9.82,0H48q-12.74,0-25.48,0h0c-.9,0-1,.06-1,.6v.29c0,1.42-.09,2.88-.25,4.32-.12,1.11-.13,2.26-.14,3.37s0,2-.11,3a106.5,106.5,0,0,0,0,13.37l.12,2.76c.11,3,.37,6.11.63,9.09.14,1.67.28,3.35.4,5v.13a3.86,3.86,0,0,0,.15,1.06,4.16,4.16,0,0,0,1.21.08H58.19c.59,0,1.69,0,1.74,1.49a1.72,1.72,0,0,1-.39,1.33,2,2,0,0,1-1.54.43q-17.51,0-35,0c-.24,0-.75,0-.85.11a.72.72,0,0,0,0,.47,3.86,3.86,0,0,1,0,.9c0,.28-.09.65,0,.71a2.66,2.66,0,0,0,.56-.45,4.72,4.72,0,0,1,.57-.47A3.21,3.21,0,0,1,24.87,71.8Zm42.29-49H22.55a1.92,1.92,0,0,1-1.64-.61,2.05,2.05,0,0,1,0-1.84A1,1,0,0,1,22,19.65h.1l1,0c1,0,2,0,3.06,0,.43,0,.51-.06.51-.06s.08-.09,0-.49V19a.79.79,0,0,0-.05-.51s-.14-.11-.57-.09c-.59,0-1.18,0-1.77,0s-1,0-1.48,0a1.48,1.48,0,0,1-1.15-.36,1.64,1.64,0,0,1-.37-1.23,4.45,4.45,0,0,1,3.06-4.05,1.47,1.47,0,0,1,1.36.38l1.06.85,1.29,1a.83.83,0,0,0,1.2,0c.38-.28.77-.55,1.16-.82s1-.68,1.46-1.06a1.58,1.58,0,0,1,2.3.1,16.46,16.46,0,0,0,1.38,1.12l.78.61a.82.82,0,0,0,1.2,0c.44-.33.89-.65,1.35-1s.92-.64,1.37-1a1.48,1.48,0,0,1,2,0c.27.23.55.44.83.65a13.86,13.86,0,0,1,1.28,1,1.15,1.15,0,0,0,1.81.06c.34-.28.7-.55,1.06-.82s.71-.53,1.06-.82a1.63,1.63,0,0,1,2.32,0c.35.29.7.56,1.06.83s.71.53,1.05.82c.67.55,1.07.58,1.62.08a13.63,13.63,0,0,1,1.14-.9c.33-.24.66-.49,1-.76A1.72,1.72,0,0,1,59,13.4c.31.28.63.54.95.81s.62.51.92.78a1,1,0,0,0,1.53,0c.49-.41,1-.81,1.5-1.21l.78-.61a1.38,1.38,0,0,1,1.24-.34,4.46,4.46,0,0,1,2.91,4.6,1.11,1.11,0,0,1-1.15,1H60.65q-10.74,0-21.47,0h0c-.5,0-.66.07-.71.13s-.09.12,0,.46v.07l0,.08c-.06.35,0,.44,0,.44s.11.09.65.09h0q11.18,0,22.33,0h6.18a1.9,1.9,0,0,1,1.53.67A1.94,1.94,0,0,1,69.45,22a1,1,0,0,1-1,.75ZM21.88,20.65h-.05c-.21.68-.13.88-.09.93s.17.18.81.18H68.48a1,1,0,0,0-.13-.79,1,1,0,0,0-.76-.3H61.41q-11.17,0-22.32,0h0a1.78,1.78,0,0,1-1.42-.45A1.44,1.44,0,0,1,37.42,19a1.42,1.42,0,0,1,.29-1.17,1.84,1.84,0,0,1,1.48-.47q10.73,0,21.45,0h7c.14,0,.15,0,.19-.19a3.5,3.5,0,0,0-2.17-3.44c-.1,0-.16,0-.38.16l-.78.61c-.5.39-1,.78-1.47,1.19a2,2,0,0,1-2.85,0c-.29-.26-.59-.51-.89-.76s-.66-.55-1-.84-.75-.42-1.19,0-.68.55-1,.81a13.05,13.05,0,0,0-1.06.84,2,2,0,0,1-2.93-.06c-.33-.28-.67-.54-1-.8s-.74-.56-1.1-.86a.67.67,0,0,0-1.05,0c-.35.29-.72.57-1.09.85s-.69.52-1,.79a2.12,2.12,0,0,1-3.13-.1c-.37-.34-.78-.65-1.2-1s-.59-.45-.87-.68-.42-.26-.77,0-.94.69-1.41,1-.89.61-1.32.94a1.8,1.8,0,0,1-2.43-.07L35,15.25c-.48-.37-1-.76-1.44-1.18s-.59-.39-1-.06-1,.76-1.53,1.11l-1.12.79a1.83,1.83,0,0,1-2.44-.07l-1.28-1-1.06-.86c-.25-.2-.35-.22-.47-.19a3.46,3.46,0,0,0-2.32,3.12c0,.37.05.47.08.49s.16.07.41.07c.5,0,1,0,1.52,0s1.14,0,1.71,0a1.62,1.62,0,0,1,1.34.4,1.51,1.51,0,0,1,.34,1.25,1.48,1.48,0,0,1-.28,1.24,1.55,1.55,0,0,1-1.31.38c-1-.06-2,0-3,0l-1,0h-.25Z"/><path class="cls-1" d="M37.48,51.7a11.81,11.81,0,0,1-3.15-8.35,11.49,11.49,0,0,1,9-10.45,11.85,11.85,0,0,1,7.07,1c.36.16,1.11.26.61,1-.4.55-.44,1.62-1.66,1A8.58,8.58,0,0,0,39.87,37a8.91,8.91,0,0,0-.18,13.62c4.86,4.05,13,1.92,14.44-4.94a8.71,8.71,0,0,0-.6-5.57c-.51-1.08-.22-1.69.91-2.11.62-.23.71.26.87.59a11,11,0,0,1-.91,11.92,1.93,1.93,0,0,0-.59,1.11A3,3,0,0,0,56.71,50c2.17-4.35,2.18-8.66-.36-12.79a12,12,0,0,0-11.46-6.06,12.32,12.32,0,0,0-11.14,7.69c-.31.68-.54,1-1.39.71-1-.32-1.16-.77-.71-1.68,2.62-5.34,6.8-8.59,12.79-8.95C51,28.53,56,31.47,59,37.33a14.25,14.25,0,0,1,.71,11.51c-.1.29-.44.63-.09.91s.58,0,.84-.16c.81-.37,1.62-.77,2.42-1.17.6-.3,1.21-.48,1.76,0a1.35,1.35,0,0,1,.09,1.75c-.51,1-1,1.93-1.54,2.85a1.13,1.13,0,0,0,.32,1.71c2.22,1.87,2.19,2.31-.51,3.49A46,46,0,0,1,48.75,61.8a44.17,44.17,0,0,1-17.06-2.1,32.81,32.81,0,0,1-4.78-1.9c-1.27-.63-1.34-1.34-.28-2.3l.25-.22c1.8-1.45,1.8-1.45.51-3.4-.42-.63-.82-1.25-1.24-1.87a1.12,1.12,0,0,1,.09-1.44,1.1,1.1,0,0,1,1.41-.31c1.05.47,2.1,1,3.15,1.44.19.09.42.27.61.07s0-.42,0-.62a16.24,16.24,0,0,1-.88-4.25c0-.58-.15-1.1.67-1,.66.06,1.59-.38,1.62.9A12.84,12.84,0,0,0,34.23,50c.69,1.46,2,1.55,3.26,1.68l0,.05Zm23.92-.07a40.54,40.54,0,0,1-31.28.27c.34,1,1.31,1.57,1.09,2.57s-1.39,1.12-1.95,2a41.83,41.83,0,0,0,32.55-.06C60.1,54.47,60.1,54.47,61.4,51.63Z"/><path class="cls-1" d="M45.47,62.45a47.33,47.33,0,0,1-13.93-2.28,31.56,31.56,0,0,1-4.85-1.92c-.79-.4-1.21-.85-1.29-1.39a2.09,2.09,0,0,1,.89-1.73l.28-.24C28,53.73,28,53.73,27,52.15l-1.23-1.86a1.62,1.62,0,0,1,.11-2,1.6,1.6,0,0,1,2-.44l1.81.82,1.2.55A16.19,16.19,0,0,1,30,44.91v-.17a1.34,1.34,0,0,1,.27-1.11,1.18,1.18,0,0,1,1-.25,1.7,1.7,0,0,0,.39,0,1.61,1.61,0,0,1,1.27.28,1.49,1.49,0,0,1,.41,1.12,12.36,12.36,0,0,0,1.41,5A2.11,2.11,0,0,0,36.3,51a12,12,0,0,1-2.47-7.69,12.07,12.07,0,0,1,9.46-10.93,12.37,12.37,0,0,1,7.35,1.06l.16.07a1.22,1.22,0,0,1,.88.7,1.08,1.08,0,0,1-.23,1,2.42,2.42,0,0,0-.19.36,1.63,1.63,0,0,1-.86,1,1.58,1.58,0,0,1-1.23-.14,8,8,0,0,0-9,1,8.13,8.13,0,0,0-3.07,6.31A8.27,8.27,0,0,0,40,50.26a8.58,8.58,0,0,0,8.29,1.45,8.05,8.05,0,0,0,5.34-6.1,8.19,8.19,0,0,0-.56-5.26,2,2,0,0,1-.18-1.68,2.13,2.13,0,0,1,1.37-1.11,1,1,0,0,1,1.43.72l.06.13a11.57,11.57,0,0,1-.95,12.42l-.17.22a2.17,2.17,0,0,0,1.62-1.27,12,12,0,0,0-.34-12.31,11.6,11.6,0,0,0-11-5.82,11.8,11.8,0,0,0-10.72,7.4,1.43,1.43,0,0,1-2,1A1.8,1.8,0,0,1,31,39.14a1.84,1.84,0,0,1,.21-1.49c2.84-5.77,7.28-8.87,13.21-9.23,6.69-.4,11.9,2.61,15,8.69A14.63,14.63,0,0,1,60.17,49a1,1,0,0,1-.09.21h0l.15-.08c.81-.37,1.61-.76,2.4-1.16a1.91,1.91,0,0,1,2.33.14,1.81,1.81,0,0,1,.19,2.35l-.41.78c-.35.69-.73,1.41-1.15,2.1-.29.47-.25.67.22,1.06,1.28,1.08,1.87,1.72,1.77,2.46s-.9,1.21-2.4,1.87a46.34,46.34,0,0,1-14.4,3.57C47.7,62.4,46.59,62.45,45.47,62.45ZM27.09,48.63a.57.57,0,0,0-.46.25.63.63,0,0,0-.06.85L27.8,51.6c1.43,2.16,1.39,2.46-.6,4.07l-.21.18c-.58.52-.61.78-.6.87s.11.32.75.63a31,31,0,0,0,4.69,1.87A43,43,0,0,0,48.7,61.3a45,45,0,0,0,14.09-3.49c1.17-.51,1.77-.88,1.81-1.09s-1.06-1.25-1.42-1.55a1.62,1.62,0,0,1-.43-2.36c.4-.65.77-1.35,1.12-2l.41-.79c.33-.64.24-.92,0-1.16s-.51-.3-1.19,0-1.61.8-2.43,1.17l-.12.06a1.1,1.1,0,0,1-1.23,0,1,1,0,0,1-.16-1.31,1.09,1.09,0,0,0,.08-.15,13.72,13.72,0,0,0-.68-11.12c-3-5.78-7.72-8.51-14.08-8.14-5.54.33-9.7,3.25-12.37,8.67-.23.46-.21.61-.19.66s.11.17.61.33.51.13.77-.45a12.73,12.73,0,0,1,11.57-8A12.52,12.52,0,0,1,56.78,37c2.56,4.18,2.69,8.64.38,13.27a3.48,3.48,0,0,1-3.31,1.93l-.56,0,0-.56a2,2,0,0,1,.52-1.19.9.9,0,0,0,.15-.19,10.48,10.48,0,0,0,.87-11.41l-.08-.17a1.21,1.21,0,0,0-.09-.2l-.08,0a1.32,1.32,0,0,0-.79.55,1.18,1.18,0,0,0,.16.87,9.16,9.16,0,0,1,.64,5.89,9,9,0,0,1-6,6.84A9.59,9.59,0,0,1,39.37,51a9.24,9.24,0,0,1-3.26-7.31A9.37,9.37,0,0,1,49.6,35.5c.24.12.4.14.46.11a1.15,1.15,0,0,0,.29-.47,3.2,3.2,0,0,1,.29-.52.15.15,0,0,1,0-.06l-.21-.08-.24-.09a11.33,11.33,0,0,0-6.77-1,11,11,0,0,0-8.63,10,11.3,11.3,0,0,0,2.89,7.86h0l2,2.78a40,40,0,0,0,21.41-2.83l1.18-.49-.53,1.16c-1.17,2.54-1.17,2.54.32,4.22l.47.53-.65.27a42.59,42.59,0,0,1-32.93,0l-.56-.23.33-.5a3.36,3.36,0,0,1,1.09-1c.46-.3.72-.49.79-.83s-.1-.66-.44-1.15a4.38,4.38,0,0,1-.63-1.16l-.34-1,1,.39a44.31,44.31,0,0,0,8.91,2.47l-2-1.73c-1.27-.13-2.69-.31-3.47-2a13.49,13.49,0,0,1-1.5-5.43c0-.32-.08-.4-.08-.4s-.35,0-.52,0a5.37,5.37,0,0,1-.56,0H31c0,.09,0,.22,0,.31v.2A15.49,15.49,0,0,0,31.85,49a1,1,0,0,1-.08,1.14.89.89,0,0,1-1.1.07l-1.43-.66-1.79-.82A.94.94,0,0,0,27.09,48.63Zm3.05,7.63A41,41,0,0,0,61,56.19c-1.17-1.36-1.28-1.87-.52-3.64a40.8,40.8,0,0,1-19.83,2.57l.07.09-.11-.1a43.4,43.4,0,0,1-9.33-2.26,2.15,2.15,0,0,1,.45,1.73A2.34,2.34,0,0,1,30.48,56Z"/><rect class="cls-2" width="88" height="88"/></g></g></svg>