<svg xmlns="http://www.w3.org/2000/svg" viewBox="0 0 77.53 61.85"><defs><style>.cls-1{isolation:isolate;font-size:16.88px;fill:#5b5b5b;font-family:MicrosoftJhengHeiBold, Microsoft JhengHei;letter-spacing:0.1em;}.cls-2{fill:#e87d9d;}</style></defs><title>資產 2</title><g id="圖層_2" data-name="圖層 2"><g id="圖層_32" data-name="圖層 32"><g id="FEMALE"><text class="cls-1" transform="translate(40.57 57.44)">女孩</text></g><path class="cls-2" d="M48.36,31.92a18.71,18.71,0,1,0-29-3.13l-5,5L6.82,26.28a4,4,0,1,0-5.65,5.64l7.54,7.55L1.17,47a4,4,0,0,0,5.65,5.65l7.54-7.55,7.54,7.55A4,4,0,0,0,27.55,47L20,39.47l5-5a18.73,18.73,0,0,0,23.32-2.52ZM27.55,11.12a10.72,10.72,0,1,1,0,15.16A10.73,10.73,0,0,1,27.55,11.12Z"/></g></g></svg>