<svg xmlns="http://www.w3.org/2000/svg" viewBox="0 0 37.35 33.53"><defs><style>.cls-1{isolation:isolate;}.cls-2{fill:#5b5b5b;}</style></defs><title>資產 3</title><g id="圖層_2" data-name="圖層 2"><g id="餵愛自己配" class="cls-1"><g id="HEADER"><path class="cls-2" d="M37.35,11.75c0-5.11-2.51-9.33-6.56-11C26.94-.85,22.5.15,18.68,3.4,14.85.15,10.41-.85,6.56.75,2.51,2.42,0,6.64,0,11.75c0,9.92,9.38,18.19,18.1,21.67a1.43,1.43,0,0,0,.58.11,1.41,1.41,0,0,0,.57-.11C28,29.94,37.35,21.67,37.35,11.75ZM18.68,30.29C10.85,27,3.11,19.65,3.11,11.75c0-3.83,1.78-6.94,4.64-8.13a6.79,6.79,0,0,1,2.56-.5,10.63,10.63,0,0,1,7.27,3.5,1.55,1.55,0,0,0,2.2,0c3.12-3.13,6.8-4.25,9.82-3,2.86,1.19,4.64,4.3,4.64,8.13C34.24,19.65,26.51,27,18.68,30.29Z"/></g></g></g></svg>