<svg xmlns="http://www.w3.org/2000/svg" viewBox="0 0 41 51"><defs><style>.cls-1{fill:#5b5b5b;}.cls-2{fill:none;}</style></defs><title>資產 17</title><g id="圖層_2" data-name="圖層 2"><g id="圖層_1-2" data-name="圖層 1"><path class="cls-1" d="M39.86,21.54c0-5.11-2.51-9.33-6.55-11-3.86-1.6-8.3-.6-12.12,2.65-3.83-3.25-8.27-4.25-12.12-2.65-4.05,1.67-6.56,5.89-6.56,11,0,9.92,9.38,18.19,18.1,21.67a1.47,1.47,0,0,0,.58.12,1.51,1.51,0,0,0,.58-.12C30.48,39.73,39.86,31.46,39.86,21.54ZM21.19,40.08C13.36,36.75,5.62,29.44,5.62,21.54c0-3.83,1.78-6.94,4.64-8.12a6.66,6.66,0,0,1,2.57-.51,10.63,10.63,0,0,1,7.26,3.5,1.55,1.55,0,0,0,2.2,0c3.13-3.13,6.8-4.25,9.82-3,2.86,1.18,4.64,4.29,4.64,8.12C36.75,29.44,29,36.75,21.19,40.08Z"/><rect class="cls-2" width="41" height="51"/></g></g></svg>