<svg xmlns="http://www.w3.org/2000/svg" viewBox="0 0 45 45"><defs><style>.cls-1{fill:#45c2b1;}</style></defs><title>資產 14</title><g id="圖層_2" data-name="圖層 2"><g id="圖層_1-2" data-name="圖層 1"><path class="cls-1" d="M45,22.69C44.75,35.55,34.61,45.22,21.6,45,9.58,44.79-.16,34.37,0,22A22.27,22.27,0,0,1,22.67,0C36.25.13,45,11,45,22.69Zm-10.54-.17c0-2.28,0-4.57,0-6.85a5,5,0,0,0-4.95-5.19c-4.66-.09-9.32-.08-14,0a5,5,0,0,0-5,5.11q-.08,6.93,0,13.85a5,5,0,0,0,5.16,5.14q6.86.09,13.71,0a5,5,0,0,0,5.09-5.21C34.48,27.09,34.46,24.8,34.46,22.52Z"/><path class="cls-1" d="M32.33,22.57c0,2.24,0,4.48,0,6.71a2.83,2.83,0,0,1-3.11,3.14q-6.72,0-13.43,0a2.83,2.83,0,0,1-3.13-3.12q0-6.78,0-13.56a2.92,2.92,0,0,1,3.12-3.17q6.71,0,13.43,0a2.92,2.92,0,0,1,3.13,3.15C32.35,18,32.33,20.29,32.33,22.57Zm-16.08-.09a6.21,6.21,0,0,0,6.13,6.3,6.28,6.28,0,1,0-6.13-6.3Zm14.62-6.29c0-.21,0-.42,0-.62-.55-.37-1.07-1-1.66-1-.9-.12-1.46.56-1.43,1.47s.65,1.54,1.55,1.33C29.89,17.2,30.36,16.59,30.87,16.19Z"/><path class="cls-1" d="M26.65,22.51a4.17,4.17,0,0,1-8.33.08,4.17,4.17,0,0,1,8.33-.08Z"/></g></g></svg>