<svg xmlns="http://www.w3.org/2000/svg" viewBox="0 0 40.47 40.47"><defs><style>.cls-1{fill:#bcbbba;}</style></defs><title>資產 4</title><g id="圖層_2" data-name="圖層 2"><g id="圖層_32" data-name="圖層 32"><path class="cls-1" d="M21.22,40.47h-2a.78.78,0,0,0-.21,0,20.14,20.14,0,0,1-15-8.06A19.83,19.83,0,0,1,.13,22.45C.08,22,0,21.63,0,21.22v-2c0-.08,0-.16,0-.24a19.74,19.74,0,0,1,.9-4.87A20,20,0,0,1,9,3.44,19.84,19.84,0,0,1,18,.12L19.24,0h2l.8.08A19.63,19.63,0,0,1,29.9,2.46,20,20,0,0,1,37.71,10a19.7,19.7,0,0,1,2.63,8c0,.4.08.8.13,1.2v2a1,1,0,0,0,0,.24,19.62,19.62,0,0,1-.88,4.81A20.13,20.13,0,0,1,31,37.37a19.71,19.71,0,0,1-8.56,3Zm1.12-15,0,0-.21.07a3.93,3.93,0,0,1-2.94-.09.31.31,0,0,0-.39.08l-2.92,2.93a2.73,2.73,0,0,1-4.45-.7,2.7,2.7,0,0,1,.5-3.05q2.65-2.68,5.34-5.33a2.67,2.67,0,0,1,3.67-.05c.15.13.28.27.42.4a1.24,1.24,0,0,0,1.44.16,1.26,1.26,0,0,0,.62-1.32,1.64,1.64,0,0,0-.54-.85,5.22,5.22,0,0,0-7.33-.15c-1.83,1.79-3.64,3.59-5.42,5.42a5.22,5.22,0,0,0,7.47,7.29c1.57-1.55,3.12-3.12,4.67-4.68A.52.52,0,0,0,22.34,25.49ZM18.11,15l0,0,.22-.07a4,4,0,0,1,2.92.08.34.34,0,0,0,.43-.09c1-1,2-2,3-3a2.72,2.72,0,0,1,3.83,3.86c-.63.66-1.29,1.3-1.94,1.94-1.1,1.1-2.19,2.21-3.3,3.31a2.69,2.69,0,0,1-3.46.35,6.22,6.22,0,0,1-.72-.64,1.24,1.24,0,0,0-1.43-.16,1.26,1.26,0,0,0-.63,1.31,1.62,1.62,0,0,0,.52.84,5.22,5.22,0,0,0,7.42.12c1.79-1.76,3.57-3.55,5.33-5.34A5.22,5.22,0,0,0,23,10.09c-1.22,1.17-2.39,2.38-3.59,3.57Z"/></g></g></svg>