<svg xmlns="http://www.w3.org/2000/svg" viewBox="0 0 36.47 41.72"><defs><style>.cls-1{isolation:isolate;}.cls-2{fill:#5b5b5b;}</style></defs><title>資產 5</title><g id="圖層_2" data-name="圖層 2"><g id="餵愛自己配" class="cls-1"><g id="HEADER"><path class="cls-2" d="M28.43,24.14A1.16,1.16,0,1,0,27.08,26l6,4.27.06.05A2.16,2.16,0,0,1,34,33.06l-2.78,5a.36.36,0,0,0,0,.09,2.18,2.18,0,0,1-2,1.26H7.31a2.18,2.18,0,0,1-2-1.26.36.36,0,0,0,0-.09l-2.78-5a2.16,2.16,0,0,1,.85-2.71l.07-.05L9.4,26A1.16,1.16,0,1,0,8,24.14L2.1,28.39A4.5,4.5,0,0,0,.41,34.07l0,.08,2.78,5a4.54,4.54,0,0,0,4.08,2.59H29.16a4.53,4.53,0,0,0,4.08-2.59l2.78-5,0-.08a4.5,4.5,0,0,0-1.69-5.68Z"/><path class="cls-2" d="M18.24,26.05c5.81,0,10.92-6.61,10.92-14.14C29.16,5,24.56,0,18.24,0S7.32,5,7.32,11.91C7.32,19.44,12.42,26.05,18.24,26.05Zm8.58-14.14c0,6.18-4.09,11.81-8.58,11.81S9.65,18.09,9.65,11.91c0-5.64,3.53-9.58,8.59-9.58S26.82,6.27,26.82,11.91Z"/></g></g></g></svg>