<svg xmlns="http://www.w3.org/2000/svg" viewBox="0 0 145.77 124.83"><defs><style>.cls-1{fill:#45c2b1;}</style></defs><title>資產 34</title><g id="圖層_2" data-name="圖層 2"><g id="圖層_1-2" data-name="圖層 1"><path class="cls-1" d="M1.73,114.13A12.65,12.65,0,0,1,.05,107.6C0,99.29,0,91,0,82.68V19.16H23.45V0H69.39a4.7,4.7,0,0,1,1.07.28l6.38,6.43a5.39,5.39,0,0,1-1,.16H30.31V106a17.65,17.65,0,0,1-1.65,7.91c-.66,1.35-1.44,2.65-2.2,4H80.89q23.35,0,46.73,0a5.49,5.49,0,0,1,.89.14l5.31,5.3a2.49,2.49,0,0,1-.71.52,20.55,20.55,0,0,1-6.23.89q-26,0-52,0H18.81A19,19,0,0,1,12,123.71a7.6,7.6,0,0,1-1.14-.65Q6.29,118.59,1.73,114.13ZM6.8,26.06V70.79q0,17.86,0,35.73a11.33,11.33,0,0,0,7.69,10.87,1.68,1.68,0,0,0,1,.09A10.85,10.85,0,0,0,19.81,115a11.65,11.65,0,0,0,3.63-8.88c0-10.68,0-21.36,0-32v-48Z"/><path class="cls-1" d="M133.82,123.42l-5.31-5.3,1.55-.4a11.13,11.13,0,0,0,8.61-8.85,19,19,0,0,0,.25-4.14q0-23.73,0-47.46V6.88h-1q-4,0-8,0a2.4,2.4,0,0,1-.74-.25l5.34-5.3h.1c1.25,1.28,2.49,2.57,3.75,3.84l3.35,3.32,3.89,3.82a10.29,10.29,0,0,1,.14,1.23q0,18.59,0,37.16V74q0,16,0,32.07a17.82,17.82,0,0,1-1.46,7.62c-.23.49-.55,1-.83,1.43l-7.61,7.59c-.46.24-.9.51-1.37.7A1.63,1.63,0,0,1,133.82,123.42Z"/><path class="cls-1" d="M134.52,1.32l-5.34,5.3a5.44,5.44,0,0,1-1.17.25q-25,0-50,0a7.45,7.45,0,0,1-1.14-.16L70.46.29A2.39,2.39,0,0,1,71.18,0c2.14,0,4.27,0,6.41,0h54.66a7.25,7.25,0,0,1,1.12.18C133.75.57,134.13,1,134.52,1.32Z"/><path class="cls-1" d="M145.61,12.29l-3.89-3.82-3.35-3.32c-1.26-1.27-2.5-2.56-3.75-3.84.34-.39.67-.78,1-1.16A1.2,1.2,0,0,1,136,0h9.68a6.28,6.28,0,0,1,.07.68q0,5.4,0,10.8A5.62,5.62,0,0,1,145.61,12.29Z"/><path class="cls-1" d="M1.73,114.13q4.56,4.45,9.1,8.93a19.59,19.59,0,0,1-2.49-1.18,17.73,17.73,0,0,1-6.55-7.44A1.55,1.55,0,0,1,1.73,114.13Z"/><path class="cls-1" d="M135.85,122.72l7.61-7.59a38.13,38.13,0,0,1-2.58,3.78A13.89,13.89,0,0,1,135.85,122.72Z"/><path class="cls-1" d="M135.63.15c-.34.38-.67.77-1,1.16h-.1L133.37.19Z"/><path class="cls-1" d="M37.07,78.31V42H80.73v36.3Z"/><path class="cls-1" d="M36.75,93.72V87H132v6.69Z"/><path class="cls-1" d="M131.94,102v6.69H36.78V102Z"/><path class="cls-1" d="M103.74,28.68c.21-1.08.41-2.16.64-3.23.69-3.26,1.39-6.5,2.08-9.76.26-1.19.54-2.38.74-3.58.12-.68.42-.89,1.11-.87,1.66,0,3.33,0,5.12,0-.35,1.52-.67,3-1,4.4-.8,3.28-1.62,6.56-2.43,9.84-.63,2.55-1.24,5.11-1.86,7.66-.35,1.43-.5,1.55-2,1.55-1.71,0-3.43,0-5.14,0a.81.81,0,0,1-1-.76c-.67-3.17-1.38-6.32-2-9.49-.32-1.5-.55-3-.82-4.5-.05-.29-.12-.58-.21-1-.85,3.93-1.66,7.75-2.48,11.56-.26,1.16-.58,2.31-.8,3.48-.1.53-.31.68-.82.67-2,0-4,0-5.92,0-.68,0-.91-.25-1-.85q-1.83-7.55-3.7-15.09c-.58-2.35-1.17-4.68-1.75-7,0-.13,0-.27-.06-.51,1.89,0,3.74,0,5.59,0,.19,0,.48.42.53.68.9,4,1.76,8.11,2.62,12.16.33,1.55.63,3.09,1.08,4.67.13-.74.24-1.49.4-2.22q1.41-6.45,2.84-12.9c.17-.78.17-1.84.67-2.24s1.53-.17,2.33-.18,1.77,0,2.66,0c.54,0,.77.17.89.72.91,4.34,1.86,8.67,2.8,13,.26,1.24.53,2.48.79,3.72Z"/><path class="cls-1" d="M59,11.26V34.64a6.37,6.37,0,0,1-.74.07c-2.25,0-4.49,0-6.74,0a1,1,0,0,1-1-.56c-1-2-2-4-3-6s-2.06-3.86-3.08-5.79c-.63-1.17-1.22-2.36-1.84-3.54-.12-.23-.27-.45-.42-.7V34.65H36.75V11.25H38c2,0,4,.05,6,0a1.46,1.46,0,0,1,1.52,1q3.57,6.94,7.2,13.87a4.41,4.41,0,0,0,.95,1.31c0-.23,0-.45,0-.68q-.09-7.36-.17-14.74c0-.38,0-.71.54-.71C55.64,11.27,57.25,11.26,59,11.26Z"/><path class="cls-1" d="M85.4,48.7V42h46.53V48.7Z"/><path class="cls-1" d="M131.9,78.71H85.42V72H131.9Z"/><path class="cls-1" d="M131.81,61.27l.23,2.42H85.41V57c.28,0,.57,0,.86,0h40.4a6.26,6.26,0,0,1,1,.17C129.08,58.52,130.44,59.9,131.81,61.27Z"/><path class="cls-1" d="M132,12.52,130,17.33a13.73,13.73,0,0,0-2.11-.76,38.67,38.67,0,0,0-4.16-.64A1.57,1.57,0,0,0,122,17a1.49,1.49,0,0,0,.93,1.83c.9.5,1.8,1,2.73,1.42a13.38,13.38,0,0,1,4.86,3.1A6.94,6.94,0,0,1,129,33.3,11.73,11.73,0,0,1,122.12,35a13.74,13.74,0,0,1-6.05-1.27,1,1,0,0,1-.52-.7c0-1.63,0-3.27,0-4.91A45.42,45.42,0,0,0,120,29.53a19.33,19.33,0,0,0,4,.25,1.65,1.65,0,0,0,.61-3.19c-1.3-.67-2.63-1.3-3.94-2a19,19,0,0,1-2-1.13,6.51,6.51,0,0,1-2.88-6.88,6.09,6.09,0,0,1,4.79-5.16C124.45,10.34,128.17,11,132,12.52Z"/><path class="cls-1" d="M64.21,34.65v-.8c0-7.19,0-14.38,0-21.57,0-.8.22-1,1-1,4,0,8,0,12,0,.27,0,.54,0,.87.05v4.92H70.55V20c.31,0,.6.06.9.06,1.72,0,3.44,0,5.16,0,.69,0,1,.14,1,.91-.06,1.08,0,2.16,0,3.25,0,.63-.17.88-.84.86-1.75,0-3.5,0-5.25,0h-.95v4.51h7.54v5.09Z"/><path class="cls-1" d="M131.81,61.27c-1.37-1.37-2.73-2.75-4.1-4.13a4,4,0,0,1,.82-.17c1.12,0,2.24,0,3.52,0Z"/></g></g></svg>