<svg xmlns="http://www.w3.org/2000/svg" viewBox="0 0 35.15 32.88"><defs><style>.cls-1{fill:#4cc2b1;}</style></defs><title>資產 16</title><g id="圖層_2" data-name="圖層 2"><g id="圖層_32" data-name="圖層 32"><path class="cls-1" d="M34.9,23.26a3.22,3.22,0,0,0-1.56-1.16l-.45-.22h0c-.19-.1-4.76-2.37-5.64-2.68a2.65,2.65,0,0,0-3.28,1l-.32.45A26.29,26.29,0,0,1,21.88,23a.7.7,0,0,1-.74.05l-.27-.11a19.1,19.1,0,0,1-6-3.72,23.38,23.38,0,0,1-4.29-5.35c0-.07-.06-.11-.07-.11a2.79,2.79,0,0,1,.3-.38c.22-.27.43-.5.65-.73s.35-.37.54-.59l.07-.08a5.57,5.57,0,0,0,1-1.41A2.73,2.73,0,0,0,13,8.05c-.13-.26-1.09-2.59-1.72-4.13L10.5,2.08A2.69,2.69,0,0,0,7.71,0c-.28,0-.59,0-.92,0a5.09,5.09,0,0,0-3.7,1.4A9.9,9.9,0,0,0,0,8.87c0,3.68,2.18,7.21,3.53,9.06l.14.21C7.74,24,12.77,28.42,17.84,30.52c4.49,1.86,6.9,2.36,8.56,2.36a8.25,8.25,0,0,0,1.84-.21c2.43-.52,5.45-2.33,6.26-4.63C35.18,26.12,35.35,24.07,34.9,23.26Zm-2.46,4c-.51,1.43-2.82,2.82-4.66,3.22-1.1.23-2.77.59-9.1-2C14,26.55,9.31,22.43,5.48,16.89l-.24-.33A14,14,0,0,1,2.19,8.87a7.88,7.88,0,0,1,2.53-6,3,3,0,0,1,2.07-.67l.88,0a3.94,3.94,0,0,1,.44,0,1.92,1.92,0,0,1,.37.66l.76,1.84C10.18,7.05,10.86,8.7,11,9s.18.45.12.57a3.48,3.48,0,0,1-.66.93l-.08.09c-.16.19-.32.35-.48.52s-.5.53-.76.85a2.38,2.38,0,0,0-.41,3,25.25,25.25,0,0,0,4.73,5.87,21.23,21.23,0,0,0,6.59,4.12l.24.1a2.83,2.83,0,0,0,3.19-.57,28.67,28.67,0,0,0,1.95-2.55l.31-.45c.22-.3.36-.34.75-.2.54.19,3.55,1.65,5.41,2.58h0l.48.24.57.26A7.93,7.93,0,0,1,32.44,27.31Z"/></g></g></svg>