<svg xmlns="http://www.w3.org/2000/svg" viewBox="0 0 66.4 77.36"><defs><style>.cls-1{fill:#5b5b5b;}</style></defs><title>資產 6</title><g id="圖層_2" data-name="圖層 2"><g id="圖層_32" data-name="圖層 32"><path class="cls-1" d="M13.72,38.58a1.69,1.69,0,0,0,2.38,0L22.68,32a1.68,1.68,0,0,0,0-2.37,1.73,1.73,0,0,0-2.38,0L14.91,35l-2.69-2.69a1.73,1.73,0,0,0-2.38,0,1.7,1.7,0,0,0,0,2.38Z"/><path class="cls-1" d="M20.3,43.14l-5.39,5.39-2.69-2.69a1.73,1.73,0,0,0-2.38,0,1.7,1.7,0,0,0,0,2.38l3.88,3.88a1.69,1.69,0,0,0,2.38,0l6.58-6.59a1.64,1.64,0,0,0,.49-1.18,1.66,1.66,0,0,0-.49-1.19A1.73,1.73,0,0,0,20.3,43.14Z"/><path class="cls-1" d="M20.3,56.66l-5.39,5.39-2.69-2.69a1.73,1.73,0,0,0-2.38,0,1.69,1.69,0,0,0,0,2.38l3.88,3.88a1.69,1.69,0,0,0,2.38,0L22.68,59a1.62,1.62,0,0,0,.49-1.18,1.66,1.66,0,0,0-.49-1.19A1.73,1.73,0,0,0,20.3,56.66Z"/><path class="cls-1" d="M27.61,35.78h14.6a1.68,1.68,0,0,0,0-3.36H27.61a1.68,1.68,0,1,0,0,3.36Z"/><path class="cls-1" d="M27.61,49.3h1.92a1.68,1.68,0,1,0,0-3.36H27.61a1.68,1.68,0,1,0,0,3.36Z"/><path class="cls-1" d="M25.93,61.14a1.68,1.68,0,0,0,1.68,1.68h14.6a1.68,1.68,0,0,0,0-3.36H27.61A1.68,1.68,0,0,0,25.93,61.14Z"/><path class="cls-1" d="M55.2,27.61a1.73,1.73,0,0,0-2.38,0l-.86.87a1.74,1.74,0,0,0,.19-.76V17.15a3.81,3.81,0,0,0-3.8-3.8h-5a1.67,1.67,0,0,0-1.18.49V12.72a4.27,4.27,0,0,0-4.27-4.27H33.78a6.72,6.72,0,0,0,.1-1.18,7.27,7.27,0,1,0-14.53,0,6.72,6.72,0,0,0,.1,1.18H15.31A4.27,4.27,0,0,0,11,12.72v.91a1.65,1.65,0,0,0-.91-.28H3.79A3.8,3.8,0,0,0,0,17.15V73.56a3.8,3.8,0,0,0,3.79,3.8H48.35a3.8,3.8,0,0,0,3.8-3.8V46.7a1.69,1.69,0,0,0-2.36-1.54L60.08,34.87a1.69,1.69,0,0,0,0-2.38ZM35.05,50.13l19-19,2.51,2.51-19,19ZM23.3,11a1.69,1.69,0,0,0,0-1.7,3.81,3.81,0,0,1-.57-2,3.91,3.91,0,0,1,7.82,0,3.82,3.82,0,0,1-.58,2,1.68,1.68,0,0,0,1.44,2.55h6.54a.91.91,0,0,1,.91.91v5.45a.91.91,0,0,1-.91.91H15.31a.91.91,0,0,1-.91-.91V12.72a.91.91,0,0,1,.91-.91h6.53A1.67,1.67,0,0,0,23.3,11ZM48.79,46.7V73.56a.44.44,0,0,1-.44.44H3.79a.44.44,0,0,1-.43-.44V17.15a.44.44,0,0,1,.43-.44h6.34a1.64,1.64,0,0,0,.91-.27v1.73a4.27,4.27,0,0,0,4.27,4.27H37.93a4.28,4.28,0,0,0,4.27-4.27V16.23a1.66,1.66,0,0,0,1.18.48h5a.44.44,0,0,1,.44.44V27.72a1.68,1.68,0,0,0,1.68,1.68,1.73,1.73,0,0,0,.75-.18L31.49,49a1.7,1.7,0,0,0-.27.35l0,.09a1.34,1.34,0,0,0-.15.42l-1.18,6.06a1.68,1.68,0,0,0,1.65,2,1.66,1.66,0,0,0,.32,0l6-1.17a2,2,0,0,0,.43-.15l.09-.05a1.69,1.69,0,0,0,.36-.27L48.93,46A1.69,1.69,0,0,0,48.79,46.7Z"/><path class="cls-1" d="M65.91,26.67,61,21.78a1.73,1.73,0,0,0-2.38,0l-2.89,2.9a1.68,1.68,0,0,0,0,2.37l4.88,4.88a1.67,1.67,0,0,0,2.38,0L65.91,29a1.66,1.66,0,0,0,.49-1.19A1.62,1.62,0,0,0,65.91,26.67Z"/></g></g></svg>