<svg xmlns="http://www.w3.org/2000/svg" viewBox="0 0 41 51.15"><defs><style>.cls-1{fill:#45c2b1;}.cls-2{fill:#5b5b5b;}.cls-3{fill:none;}</style></defs><title>資產 20</title><g id="圖層_2" data-name="圖層 2"><g id="圖層_1-2" data-name="圖層 1"><polygon class="cls-1" points="4.08 10.98 2.08 41.98 32.08 41.98 30.08 10.98 4.08 10.98"/><path class="cls-2" d="M5.06,9.66H9.93l0-2.31V7.23A7.24,7.24,0,0,1,12,2.13,7.08,7.08,0,0,1,17.05,0h0a7.33,7.33,0,0,1,5,2,6.7,6.7,0,0,1,2.17,4.89h0V9.66H29a2.61,2.61,0,0,1,1.87.77h0l.09.11a2.82,2.82,0,0,1,.72,1.73l1.66,28.06h0v.11h0v0h0a2.56,2.56,0,0,1-.78,1.83,2.72,2.72,0,0,1-1.75.78H3.12a2.8,2.8,0,0,1-1.63-.77,2.55,2.55,0,0,1-.78-1.83h0v-.11h0s0-.08,0-.12l1.66-28a2.81,2.81,0,0,1,.81-1.83l.91.9-.91-.91.1-.09a2.63,2.63,0,0,1,1.77-.68Zm7.48,5.53a2.47,2.47,0,1,1-2.57.12l0-3.08H5a.24.24,0,0,0-.06.17l-1.66,28v.05h0v0h0l.07,0H30.7a.2.2,0,0,0,.09-.05h0L29.13,12.42a.26.26,0,0,0,0-.14l0,0h0s0,0-.05,0H24.18v2.9a2.47,2.47,0,1,1-3.54,2.23,2.46,2.46,0,0,1,1-2V12.23h-9.1l0,3Zm0-5.53h9.12V6.85h0a4.08,4.08,0,0,0-1.34-3,4.76,4.76,0,0,0-3.22-1.28h0a4.48,4.48,0,0,0-3.22,1.35,4.69,4.69,0,0,0-1.35,3.3v.1l0,2.33ZM30.79,40.48h0Z"/><rect class="cls-3" y="0.15" width="41" height="51"/></g></g></svg>