<svg xmlns="http://www.w3.org/2000/svg" viewBox="0 0 32.66 43.1"><defs><style>.cls-1{isolation:isolate;}.cls-2{fill:#5b5b5b;}</style></defs><title>資產 4</title><g id="圖層_2" data-name="圖層 2"><g id="餵愛自己配" class="cls-1"><g id="HEADER"><path class="cls-2" d="M4.35,9.66H9.22l0-2.31V7.23a7.25,7.25,0,0,1,2.09-5.1A7,7,0,0,1,16.34,0h0a7.31,7.31,0,0,1,5,2,6.66,6.66,0,0,1,2.17,4.89h0V9.66h4.84a2.61,2.61,0,0,1,1.87.77h0l.09.11A2.82,2.82,0,0,1,31,12.27l1.67,28.06h0v.11h0v0h0a2.56,2.56,0,0,1-.78,1.83,2.72,2.72,0,0,1-1.75.78H2.41a2.8,2.8,0,0,1-1.63-.77A2.59,2.59,0,0,1,0,40.48H0v-.11H0s0-.08,0-.12l1.66-28a2.81,2.81,0,0,1,.81-1.83l.91.9-.91-.91.1-.09a2.63,2.63,0,0,1,1.77-.68Zm7.48,5.53a2.47,2.47,0,1,1-2.57.12l0-3.08H4.3a.24.24,0,0,0-.06.17l-1.66,28v.05h0v0h0a.2.2,0,0,0,.08,0H30a.3.3,0,0,0,.08,0h0L28.42,12.42a.2.2,0,0,0,0-.14l0,0h0s0,0-.05,0H23.47v2.9a2.47,2.47,0,1,1-2.56.26V12.23h-9.1l0,3Zm0-5.53h9.12V6.85h0a4.08,4.08,0,0,0-1.34-3,4.76,4.76,0,0,0-3.22-1.28h0a4.48,4.48,0,0,0-3.22,1.35,4.69,4.69,0,0,0-1.35,3.3v.1l0,2.33ZM30.08,40.48h0Z"/></g></g></g></svg>